# xmcd
#
# Track frame offsets:
#	150
#	17138
#	36432
#	51676
#	75658
#
# Disc length: 1381 seconds
#
# Revision: 1
# Processed by: cddbd v1.5.1PL0 Copyright (c) Steve Scherf et al.
# Submitted via: CDex 1.50Beta5
#
DISCID=3f056305
DTITLE=天才トノサマBAND - 唖形
DYEAR=1900
DGENRE=Pop
TTITLE0=RIDE ON
TTITLE1=天才FUNKYブラザーMen!!?!?!
TTITLE2=献身的愛
TTITLE3=そーりー
TTITLE4=Smoky Mountain
EXTD=
EXTT0=
EXTT1=
EXTT2=
EXTT3=
EXTT4=
PLAYORDER=
